# xmcd
#
# Track frame offsets: 
#        150
#        11365
#        30097
#        43140
#        55220
#        66147
#        79407
#        94820
#        104737
#        119635
#        130420
#        150072
#        161377
#        174000
#        188747
#        200952
#        220827
#        234057
#        244860
#        258575
#        273340
#        289307
#        309400
#        321405
#        342075
#
# Disc length: 4725 seconds
#
# Revision: 1
# Processed by: cddbd v1.5.2PL0 Copyright (c) Steve Scherf et al.
# Submitted via: ExactAudioCopy v0.99pb2
#
DISCID=5f127319
DTITLE=Aretha Franklin - I Never Loved a Man the Way I Love You and Aret
DTITLE=ha Arrives
DYEAR=1967
DGENRE=Blues
TTITLE0=Respect
TTITLE1=Drown In My Own Tears
TTITLE2=I Never Loved a Man (The Way I Love You)
TTITLE3=Soul Serenade
TTITLE4=Don't Let Me Lose This Dream
TTITLE5=Baby, Baby, Baby
TTITLE6=Dr. Feelgood (Love is a Serious Business)
TTITLE7=Good Times
TTITLE8=Do Right Woman - Do Right Man
TTITLE9=Save Me
TTITLE10=A Change Is Gonna Come
TTITLE11=Respect (stereo)
TTITLE12=I Never Loved a Man (The Way I Love You) (stereo)
TTITLE13=Do Right Woman - Do Right Man (stereo)
TTITLE14=Satisfaction
TTITLE15=You Are My Sunshine
TTITLE16=Never Let Me Go
TTITLE17=96 Tears
TTITLE18=Prove It
TTITLE19=Night Life
TTITLE20=That's Life
TTITLE21=I Wonder
TTITLE22=Ain't Nobody (Gonna Turn Me Around)
TTITLE23=Going Down Slow
TTITLE24=Baby, I Love You
EXTD=Two originals reissued on a single CD.
EXTT0=
EXTT1=
EXTT2=
EXTT3=
EXTT4=
EXTT5=
EXTT6=
EXTT7=
EXTT8=
EXTT9=
EXTT10=
EXTT11=
EXTT12=
EXTT13=
EXTT14=
EXTT15=
EXTT16=
EXTT17=
EXTT18=
EXTT19=
EXTT20=
EXTT21=
EXTT22=
EXTT23=
EXTT24=
PLAYORDER=
